<?xml version="1.0" encoding="iso-8859-1"?>
<!-- Generator: Adobe Illustrator 19.0.0, SVG Export Plug-In . SVG Version: 6.00 Build 0)  -->
<svg version="1.1" id="Layer_1" xmlns="http://www.w3.org/2000/svg" xmlns:xlink="http://www.w3.org/1999/xlink" x="0px" y="0px"
	 viewBox="0 0 496 496" style="enable-background:new 0 0 496 496;" xml:space="preserve">
<g>
	<g>
		<g>
			<path d="M248,240c66.168,0,120-53.832,120-120S314.168,0,248,0S128,53.832,128,120S181.832,240,248,240z M272.528,220.96
				c9.84-10.568,21.176-25.984,29.192-46.256c12.056,3.216,21.24,7,27.512,10.072C315.064,202.496,295.248,215.432,272.528,220.96z
				 M338.32,171.368c-6.992-3.6-17.512-8.136-31.472-11.92c2.584-9.56,4.216-20.104,4.792-31.448h39.96
				C350.4,143.688,345.728,158.392,338.32,171.368z M338.32,68.632c7.416,12.984,12.08,27.68,13.28,43.368h-39.96
				c-0.576-11.344-2.208-21.888-4.792-31.448C320.808,76.76,331.328,72.232,338.32,68.632z M329.232,55.224
				c-6.272,3.072-15.456,6.856-27.512,10.072c-8.016-20.272-19.352-35.688-29.192-46.256
				C295.248,24.56,315.064,37.504,329.232,55.224z M256,25.136c8,8.856,21.2,23.456,29.72,43.664
				c-8.832,1.544-21.72,2.64-29.72,3.016V25.136z M256,87.816c16-0.408,24.856-1.736,35.176-3.664
				c2.36,8.472,3.872,17.816,4.456,27.848H256V87.816z M256,128h39.64c-0.568,10.056-2.072,19.4-4.4,27.864
				c-10.336-1.936-19.24-3.264-35.24-3.68V128z M256,168.184c8,0.376,20.992,1.48,29.856,3.04
				C277.32,191.64,264,206.184,256,214.992V168.184z M166.776,184.776c6.272-3.072,15.456-6.856,27.504-10.072
				c8.016,20.264,19.352,35.688,29.192,46.248C200.752,215.432,180.936,202.496,166.776,184.776z M240,214.872
				c-8-8.856-21.208-23.456-29.728-43.672c8.832-1.552,21.728-2.64,29.728-3.016V214.872z M240,152.184
				c-16,0.408-24.856,1.736-35.184,3.664c-2.36-8.472-3.872-17.816-4.456-27.848H240V152.184z M240,112h-39.64
				c0.568-10.056,2.072-19.4,4.4-27.864C215.096,86.072,224,87.4,240,87.816V112z M240,71.816c-8-0.376-20.992-1.48-29.864-3.04
				C218.672,48.352,232,33.808,240,25V71.816z M223.472,19.048c-9.84,10.568-21.176,25.984-29.192,46.248
				c-12.048-3.216-21.24-7-27.504-10.072C180.936,37.504,200.752,24.568,223.472,19.048z M157.688,68.632
				c6.992,3.6,17.512,8.128,31.464,11.92c-2.584,9.56-4.216,20.104-4.792,31.448h-39.952
				C145.608,96.312,150.28,81.616,157.688,68.632z M144.408,128h39.952c0.576,11.344,2.208,21.888,4.792,31.448
				c-13.96,3.784-24.472,8.32-31.464,11.92C150.272,158.392,145.608,143.688,144.408,128z"/>
			<path d="M64,368H0v128h144V384H64V368z M128,400v80H16v-96h32v16H128z"/>
			<rect x="32" y="432" width="80" height="16"/>
			<path d="M240,368h-64v128h144V384h-80V368z M304,400v80H192v-96h32v16H304z"/>
			<rect x="208" y="432" width="80" height="16"/>
			<path d="M416,384v-16h-64v128h144V384H416z M480,480H368v-96h32v16h80V480z"/>
			<rect x="384" y="432" width="80" height="16"/>
			<polygon points="432,352 432,288 256,288 256,256 240,256 240,288 64,288 64,352 80,352 80,304 240,304 240,352 256,352 256,304 
				416,304 416,352 			"/>
			<path d="M123.312,168H96V80H32v88H4.688L64,227.312L123.312,168z M48,184V96h32v88h4.688L64,204.688L43.312,184H48z"/>
			<path d="M491.312,168H464V80h-64v88h-27.312L432,227.312L491.312,168z M416,184V96h32v88h4.688L432,204.688L411.312,184H416z"/>
		</g>
	</g>
</g>
<g>
</g>
<g>
</g>
<g>
</g>
<g>
</g>
<g>
</g>
<g>
</g>
<g>
</g>
<g>
</g>
<g>
</g>
<g>
</g>
<g>
</g>
<g>
</g>
<g>
</g>
<g>
</g>
<g>
</g>
</svg>
