<?xml version="1.0" encoding="utf-8"?>
<!-- Generator: Adobe Illustrator 12.0.0, SVG Export Plug-In . SVG Version: 6.00 Build 51448)  -->
<!DOCTYPE svg PUBLIC "-//W3C//DTD SVG 1.1//EN" "http://www.w3.org/Graphics/SVG/1.1/DTD/svg11.dtd" [
	<!ENTITY ns_svg "http://www.w3.org/2000/svg">
	<!ENTITY ns_xlink "http://www.w3.org/1999/xlink">
]>
<svg  version="1.1" id="Layer_1" xmlns="&ns_svg;" xmlns:xlink="&ns_xlink;" width="451" height="451" viewBox="0 0 451 451"
	 overflow="visible" enable-background="new 0 0 451 451" xml:space="preserve">
<g>
	<circle fill="none" stroke="#E25829" stroke-width="2" cx="225.398" cy="225" r="175"/>
	<g>
		<g>
			<g>
				<g>
					<path fill="none" stroke="#E25829" stroke-width="2" d="M165.724,261.378c-0.95,0.397-1.899,0.792-2.837,1.218
						c-2.184,1.018-3.443,3.723-2.862,5.924l5.319,20.174c0.58,2.199,3.009,3.934,5.413,3.74c11.065-0.99,21.902-3.85,32.019-8.441
						c2.188-1.018,3.443-3.725,2.865-5.924l-5.323-20.176c-0.578-2.199-3.008-3.933-5.41-3.74l0,0
						c-1.024,0.091-2.049,0.216-3.068,0.342l-3.154-11.963c-1.466-5.557-7.34-8.846-13.095-7.329l-5.244,1.384
						c-5.753,1.516-9.245,7.273-6.708,14.973l1.217,4.5l6.236-2.041l-1.567-6.434c-0.486-1.855,0.676-3.773,2.593-4.277l5.246-1.385
						c1.917-0.504,3.875,0.592,4.362,2.444l2.971,11.263c-4.131,0.813-8.206,1.889-12.201,3.219L165.724,261.378z"/>
					<path fill="none" stroke="#E25829" stroke-width="2" d="M187.072,278.497l-5.363,1.414l-0.046-6.022
						c-1.345-0.152-2.508-1.076-2.865-2.423c-0.465-1.771,0.641-3.602,2.478-4.086c1.829-0.479,3.696,0.563,4.162,2.333
						c0.358,1.348-0.203,2.725-1.296,3.52L187.072,278.497z"/>
				</g>
			</g>
		</g>
		<g>
			<g>
				<path fill="none" stroke="#E25829" stroke-width="2" d="M298.671,181.026l-18.772-23.551c-1.772-2.225-4.464-3.52-7.308-3.52
					H175.57c-2.847,0-5.533,1.295-7.308,3.52l-18.771,23.551c-1.959,2.459-3.566,7.047-3.566,10.511v17.252
					c1.494-2.348,3.671-4.108,6.285-5.009c0.145-1.969,0.744-3.882,1.766-5.622c1.771-3.019,4.613-5.162,7.998-6.04
					c1.214-0.319,2.323-0.465,3.437-0.465c4.475,0,8.532,2.279,10.906,5.856c0.709-0.123,1.423-0.188,2.14-0.188
					c2.194,0,4.275,0.604,6.082,1.647l10.398-2.706c1.304-0.339,2.643-0.51,3.984-0.51c7.189,0,13.477,4.863,15.29,11.829
					L234.59,285.9c1.063,4.086,0.468,8.344-1.668,11.981c-2.139,3.644-5.565,6.229-9.655,7.296l-9.093,2.363h76.383
					c6.451,0,11.684-5.227,11.684-11.682V191.217C302.238,188.073,300.631,183.485,298.671,181.026L298.671,181.026z
					 M155.624,180.827l6.216-7.8h7.345l5.586-6.881h-7.442l4.589-5.757c0.89-1.118,2.223-1.761,3.653-1.761h97.021
					c1.432,0,2.764,0.643,3.65,1.761l4.591,5.757h-6.774l4.44,6.881h7.818l6.218,7.8H155.624z M157.521,209.603l-2.622,0.684
					c-2.793,0.725-4.468,3.578-3.741,6.37l0.025,0.101c0.73,2.794,3.581,4.468,6.374,3.743l22.236-5.785
					c2.792-0.726,4.466-3.579,3.739-6.372l-0.025-0.103c-0.729-2.793-3.579-4.466-6.373-3.741l-2.622,0.684
					c-1.4,0.363-2.832-0.477-3.198-1.878l-0.019-0.085c-0.849-3.251-4.172-5.204-7.426-4.358l-0.136,0.034
					c-3.254,0.848-5.204,4.172-4.358,7.424l0.021,0.088C159.762,207.807,158.922,209.237,157.521,209.603L157.521,209.603z
					 M164.689,202.283c1.41-0.367,2.852,0.481,3.217,1.89c0.368,1.412-0.479,2.854-1.889,3.217c-1.41,0.37-2.852-0.479-3.22-1.889
					C162.432,204.093,163.278,202.651,164.689,202.283L164.689,202.283z M227.802,287.667l-20.377-78.324
					c-1.222-4.699-6.027-7.52-10.726-6.298l-10.384,2.702c0.244,0.506,0.449,1.043,0.597,1.608
					c1.239,4.768-1.567,9.548-6.233,10.766l-21.91,5.699c-4.473,1.164-9.287-1.14-10.79-5.509c-0.279-0.824-0.436-1.653-0.478-2.465
					l-10.396,2.702c-4.701,1.224-7.52,6.026-6.298,10.728l20.376,78.32c1.222,4.705,6.025,7.522,10.727,6.3l59.592-15.504
					C226.205,297.17,229.026,292.366,227.802,287.667L227.802,287.667z"/>
			</g>
		</g>
	</g>
</g>
</svg>
