<?xml version="1.0" encoding="utf-8"?>
<!-- Generator: Adobe Illustrator 12.0.0, SVG Export Plug-In . SVG Version: 6.00 Build 51448)  -->
<!DOCTYPE svg PUBLIC "-//W3C//DTD SVG 1.1//EN" "http://www.w3.org/Graphics/SVG/1.1/DTD/svg11.dtd" [
	<!ENTITY ns_svg "http://www.w3.org/2000/svg">
	<!ENTITY ns_xlink "http://www.w3.org/1999/xlink">
]>
<svg  version="1.1" id="Layer_1" xmlns="&ns_svg;" xmlns:xlink="&ns_xlink;" width="451" height="451" viewBox="0 0 451 451"
	 overflow="visible" enable-background="new 0 0 451 451" xml:space="preserve">
<g>
	<path fill="none" stroke="#E25829" stroke-width="2" d="M400.446,225c0,96.649-78.351,175-174.996,175
		c-96.651,0-175.004-78.351-175.004-175c0-96.65,78.353-175,175.003-175C322.093,50,400.446,128.35,400.446,225z"/>
	<g>
		<path fill="none" stroke="#E25829" stroke-width="2" d="M300.506,253.619l-12.494-0.996v47.738l-60.991,13.115
			c-2.852,0.626-5.815,0.626-8.668,0.024l-58.537-12.308c-1.042-0.23-1.81-1.136-1.832-2.202l-1.02-39.025
			c-0.021-1.228,0.905-2.271,2.11-2.384l49.729-4.355c0.858-0.072,1.601-0.629,1.924-1.438l11.961-29.013v79.603l54.04-10.267
			v-40.416l-31.84-2.021c-2.57-0.162-4.844-1.735-5.9-4.089l-16.483-36.671l-16.574,37.333c-0.345,0.764-1.064,1.275-1.875,1.369
			l-58.61,5.908c-1.782,0.187-3.078-1.646-2.315-3.289l15.597-33.347c0.327-0.673,0.954-1.157,1.672-1.299l60.11-11.03l1.996-0.37
			l1.943,0.347l61.412,11.052c0.736,0.142,1.369,0.626,1.688,1.323l15.253,33.439C303.539,251.975,302.27,253.76,300.506,253.619
			L300.506,253.619z M237.537,172.804h-7.233v15.377c0,1.6-1.3,2.895-2.899,2.895h-8.688c-1.603,0-2.898-1.295-2.898-2.895v-15.377
			h-7.233c-2.232,0-3.624-2.413-2.51-4.343l14.477-25.076c1.115-1.93,3.898-1.93,5.015,0l14.479,25.076
			C241.164,170.391,239.765,172.804,237.537,172.804L237.537,172.804z"/>
	</g>
</g>
</svg>
