<?xml version="1.0" encoding="iso-8859-1"?>
<!-- Generator: Adobe Illustrator 18.1.1, SVG Export Plug-In . SVG Version: 6.00 Build 0)  -->
<svg version="1.1" id="Capa_1" xmlns="http://www.w3.org/2000/svg" xmlns:xlink="http://www.w3.org/1999/xlink" x="0px" y="0px"
	 viewBox="0 0 52.227 52.227" style="enable-background:new 0 0 52.227 52.227;" xml:space="preserve">
<g>
	<g>
		<rect x="23.725" y="11.329" style="fill:#030104;" width="6.46" height="1.294"/>
		<path style="fill:#030104;" d="M9.085,37.659c1.054,4.282,5.943,5.416,8.464,5.716c2.376-0.307,7.481-1.458,7.98-5.716
			c1.062,4.32,6.029,5.438,8.53,5.723c2.348-0.293,7.54-1.428,8.044-5.723c1.124,4.578,6.646,5.56,8.955,5.769V22.657h-4.381v7.882
			h-4.366v-8.863h3.983v-6.727h-3.983V4.425c-17.343-2.524-31.188,0-31.188,0v11.506H7.137v6.727h3.987v7.882H6.233v-7.882h-4.38
			v20.608C4.415,42.818,8.635,41.51,9.085,37.659z M14.244,28.616v-3.263h9.48v3.263H14.244z M40.124,28.616h-9.48v-3.263h9.48
			V28.616z M13.551,9.029h25.99v9.283h-25.99C13.551,18.312,13.551,9.029,13.551,9.029z"/>
		<path style="fill:#030104;" d="M52.209,45.816c0,0-8.547,0-9.977-5.826c-0.503,4.297-5.695,5.427-8.044,5.725
			c-2.499-0.288-7.468-1.402-8.528-5.725c-0.5,4.26-5.604,5.411-7.98,5.717c-2.521-0.302-7.412-1.434-8.465-5.717
			c-0.652,5.569-9.186,5.826-9.186,5.826L0,48.923h19.193h13.853h19.181L52.209,45.816z"/>
	</g>
</g>
<g>
</g>
<g>
</g>
<g>
</g>
<g>
</g>
<g>
</g>
<g>
</g>
<g>
</g>
<g>
</g>
<g>
</g>
<g>
</g>
<g>
</g>
<g>
</g>
<g>
</g>
<g>
</g>
<g>
</g>
</svg>
